<?xml version="1.0" encoding="utf-8"?>
<!DOCTYPE svg PUBLIC "-//W3C//DTD SVG 1.0//EN" "http://www.w3.org/TR/2001/REC-SVG-20010904/DTD/svg10.dtd">
<svg version="1.0" xmlns="http://www.w3.org/2000/svg" width="1072px" height="1134px" viewBox="0 0 1072 1134" preserveAspectRatio="xMidYMid meet">
 <g fill="#232d38">
  <path d="M550.6 894.3 c-5.4 -6 -12.6 -13.2 -16 -16.2 -3.4 -2.9 -26.3 -25.2 -51.1 -49.5 -24.7 -24.2 -49.9 -48.9 -56 -54.7 -42.1 -40.7 -52 -50.2 -67.5 -64.5 -23.8 -22 -63.8 -62.7 -79.5 -80.9 -15.5 -17.9 -23.8 -26.4 -36.3 -36.8 -27 -22.7 -42.2 -50.8 -46.7 -86.7 -2.3 -18.3 -4.8 -64.2 -4 -72.7 l0.7 -7.4 10.6 -11.7 c5.8 -6.4 15.6 -16.9 21.7 -23.2 6 -6.3 14.4 -15.4 18.5 -20.1 4.1 -4.7 15.6 -17.2 25.5 -27.8 29 -31.2 54.7 -58.9 58.9 -63.6 l3.9 -4.4 -2 -4.8 c-3.8 -8.8 -4.7 -15.2 -4.6 -29.5 0.2 -14.5 1.4 -25.7 4 -34.8 2.7 -9.6 10.8 -25.2 18.1 -34.7 15.3 -19.6 33.8 -31.8 59.6 -39 12.2 -3.3 34.6 -4.2 48.6 -1.9 30.7 5 56.6 19.1 71.4 38.7 2.4 3.2 4.6 6.4 4.8 7.1 0.3 0.9 16.6 1.1 70.9 1 l70.4 -0.2 3.6 -5.2 c4.5 -6.6 16.7 -18.2 24.9 -23.8 8.8 -6 25 -13.5 35 -16.2 7.5 -2 10.8 -2.3 28 -2.3 18 0 20.3 0.2 30.5 2.8 12.6 3.2 28.3 10.3 38 17.2 14 10 28.4 26.5 35.7 41 4.6 9 6.5 15.2 8.9 29.2 2.8 16.7 2.3 36.7 -1.3 51.9 l-2.4 10.2 13 12.2 c12.8 11.9 23.1 19.3 28.8 20.6 4.9 1 5.9 3.9 6.9 20.1 1.1 17.9 1 190.7 -0.1 215.1 l-0.8 17.3 -6.4 5.8 c-3.4 3.2 -10.8 9.3 -16.3 13.6 -6.1 4.7 -29.7 27.3 -60.5 58 -47.8 47.4 -74.7 73.7 -103.8 100.9 -7 6.6 -29.6 28.4 -50.2 48.5 -20.6 20.2 -47.2 45.9 -59 57.1 -11.8 11.3 -29.4 28.3 -39.1 37.8 l-17.7 17.2 -4.8 0 -4.9 0 -9.9 -10.7z m50.7 -67.7 c11.1 -10.4 29 -27.6 39.7 -38.1 10.7 -10.5 22.9 -22.2 27 -26 9.2 -8.5 78.1 -76.3 130.5 -128.5 44.8 -44.5 54.5 -53.8 68 -64.5 5.3 -4.2 10.5 -9 11.5 -10.7 1.9 -3.1 4 -16.8 4 -25.9 0 -3 0.4 -5.9 0.9 -6.4 2.7 -2.9 4.3 -75.8 3.3 -146 -0.2 -12.6 -0.1 -25.5 0.3 -28.6 0.9 -7.2 -0.6 -12 -4.9 -15.2 -1.8 -1.4 -8.4 -7.2 -14.6 -12.9 l-11.3 -10.4 -4.5 4.9 c-3.1 3.2 -9.8 7.9 -19.7 13.8 -15 8.9 -19.9 10.6 -22.3 7.7 -2.1 -2.7 -9.2 -22.6 -9.2 -25.9 0 -3.2 0.6 -3.8 8.3 -8.8 9.7 -6.5 18.8 -15.5 25.3 -25.3 14.8 -22.2 16.2 -48.8 4 -72.6 -8.8 -16.9 -20.6 -28.4 -38.1 -37.2 -22.9 -11.5 -42 -11.8 -64.1 -1.1 -16.5 8.1 -29 21.2 -38.8 40.9 -4.9 9.7 -6.5 16.6 -7.3 29.7 l-0.6 11 -19.5 0.1 -19.5 0.2 0.6 -7.2 c0.4 -3.9 1.6 -11.8 2.7 -17.6 1.2 -5.8 2.2 -11.3 2.3 -12.3 0.2 -1.7 -4.3 -1.8 -104.7 -1.7 -57.7 0 -105.5 0.4 -106.1 0.8 -3.2 1.8 -25.1 24.1 -45 45.7 -12.1 13.2 -28.8 30.9 -37 39.5 -13 13.4 -42.5 45 -60.4 64.5 -3 3.3 -9.6 10.3 -14.6 15.5 -10.6 11 -26.4 28.5 -38.5 42.5 -16.4 18.9 -16 18.4 -16 22.8 l0 4 41.8 -0.4 c22.9 -0.2 55.9 -0.2 73.3 -0.1 31 0.2 31.7 0.2 35 2.5 5.8 3.9 7.9 8.1 7.9 15.8 l0 6.8 -11.9 12.3 c-6.5 6.8 -15.4 16.8 -19.7 22.4 -4.3 5.5 -11.6 14.6 -16.1 20.2 -4.6 5.5 -9.2 11.7 -10.4 13.6 l-2.1 3.6 4.8 7.2 c6.2 9.3 21.3 24.5 28.4 28.4 10.5 5.9 18.3 7.9 30.5 7.9 12 0 19.9 -1.9 32 -7.6 7.1 -3.3 16.8 -11.7 22.1 -19.2 8.8 -12.2 9.9 -12.6 21.5 -7.3 4.1 1.8 9.1 4 11.3 4.7 4.4 1.6 5.6 3.9 5.6 10.6 0 6.7 -3.2 12.4 -10.8 19.4 -17.8 16.4 -36.7 27.1 -55.2 31.4 -17.9 4.1 -48 3.7 -62.7 -1 -10.5 -3.3 -18.3 -8.6 -31.4 -21.2 l-10.6 -10.2 -3.4 3.7 c-1.9 2 -4.5 4.9 -5.8 6.4 l-2.4 2.7 2.5 3.8 c5.3 7.9 16.1 19.5 27 28.9 6.2 5.3 15.6 14.5 20.9 20.3 11.6 12.9 51.5 51.3 61.9 59.6 9.2 7.4 31 28.5 70.9 68.9 16.8 17 41.3 41.2 54.4 53.8 l23.8 22.9 7.5 -6.3 c4.2 -3.4 16.7 -14.8 27.7 -25.2z m-315.8 -262.7 c4.7 -4.5 8.5 -8.5 8.5 -9 0 -0.4 -4.2 -5 -9.3 -10.2 -5.1 -5.2 -12.2 -13.6 -15.7 -18.7 -7.3 -10.4 -20.7 -27.4 -32.6 -41.4 l-3.4 -4 0 4.5 c0 19.5 7.6 44.5 18.1 60 4.3 6.4 23.4 26.9 25.1 26.9 0.5 0 4.7 -3.7 9.3 -8.1z m34.5 -64.1 l16.4 -17.3 -29.4 -0.5 c-16.2 -0.3 -29.7 -0.4 -29.9 -0.3 -0.5 0.3 6.6 9.6 13.4 17.3 3.1 3.6 7.1 9.1 8.8 12.2 1.8 3.2 3.5 5.8 3.8 5.8 0.3 0 7.9 -7.8 16.9 -17.2z m88.5 -306.8 c6.4 -7.4 12 -14.1 12.2 -14.8 0.4 -0.9 7.6 -1.2 31.2 -1.2 30.4 0 30.6 -0.1 28.1 -2 -2.9 -2.2 -18.2 -8.4 -26.1 -10.5 -3 -0.9 -9.8 -1.5 -15.4 -1.5 -21.6 -0.1 -40.4 8.5 -56.3 25.5 -11.2 12 -17.4 26.8 -18.9 45 l-0.6 8 17 -17.5 c9.4 -9.6 22.3 -23.6 28.8 -31z"/>
  <path d="M758 600 l-19.5 -0.5 -0.8 -17.9 c-0.5 -10.1 -0.5 -18.2 0 -18.7 0.5 -0.5 7.3 -0.5 15.8 0.1 8.2 0.6 19.7 0.7 25.6 0.4 5.9 -0.4 10.8 -0.3 11.1 0.2 0.3 0.5 0.3 9.1 0 19.2 l-0.5 18.2 -6.1 -0.2 c-3.4 -0.1 -14.9 -0.5 -25.6 -0.8z"/>
  <path d="M427.3 530.3 c-1 -2.2 -1.8 -7.6 -2 -12.8 -0.5 -10.7 1.2 -15.3 6.2 -16.8 3.4 -1 122.1 -1.1 123.7 -0.1 1.3 0.8 0.3 26.6 -1.1 29.3 -0.9 1.6 -5.4 1.8 -55.8 2.9 -30.1 0.7 -58.1 1.2 -62.1 1.2 l-7.3 0 -1.6 -3.7z"/>
  <path d="M558.5 477 c-17.6 -2.7 -30.2 -8.8 -42.9 -21 -14.8 -14.2 -20.3 -23.4 -24.8 -41.8 -3.1 -12.6 -3.1 -35.4 0 -46.5 7.1 -25 21.2 -41.6 45.9 -54 12.7 -6.5 21.3 -8.2 40.8 -8.2 16 0 17.5 0.2 25.5 2.8 16.5 5.5 31.1 15.2 40.1 26.5 6.5 8.2 13.8 21.9 16.9 31.7 3 9.8 3.7 26.1 1.6 38.8 -3.9 23.4 -12.6 39 -29.8 53.2 -12.4 10.2 -25.3 16.1 -40.2 18.5 -7 1.1 -25.7 1.1 -33.1 0z m25.2 -34.4 c9.7 -2.6 22.3 -9.5 27.8 -15.1 9.4 -9.9 17.5 -28 17.5 -39.4 0 -16.2 -12.8 -35.1 -30.3 -45 -13.4 -7.5 -23.4 -8.6 -37.2 -3.9 -15.7 5.4 -23.3 11.4 -31.1 24.7 -5.8 9.9 -7.7 16.6 -7.7 27.1 0.1 15.9 7.6 29.1 22.7 40.2 7.7 5.6 13.2 8.3 22.1 10.9 7.4 2.2 9.6 2.2 16.2 0.5z"/>
  <path d="M751.8 289.4 c-24 -5.8 -38.6 -29.9 -34.8 -57.5 2.8 -20.5 18 -36.7 37.1 -39.9 23.7 -3.8 41.7 2.9 54.4 20.2 6 8.1 8.5 16.4 8.5 28.2 0 18.9 -6.4 31.4 -21.7 42.3 -9.7 6.9 -14.4 8.3 -27.1 8.2 -5.9 0 -13.3 -0.7 -16.4 -1.5z m20 -35 c5.7 -2.8 11.5 -9.9 11.5 -14 0 -5.2 -8 -13.9 -14.8 -16.1 -5.7 -1.9 -14.7 4.1 -17.9 11.8 -1.5 3.6 -1.4 3.9 1.5 9.8 2.3 4.5 4.1 6.7 7.2 8.6 5.2 3.1 6.1 3.1 12.5 -0.1z"/>
 </g>
 <g fill="#55a2af">
  <path d="M0 567 l0 -567 536 0 536 0 0 567 0 567 -536 0 -536 0 0 -567z m580.8 470.2 c3.2 -1.1 8.4 -3.5 11.4 -5.6 6.9 -4.5 22.2 -18.8 39.8 -37.1 14.2 -14.7 52.6 -52.5 64.5 -63.5 8.5 -7.8 24.9 -23.7 125 -121.2 29.7 -28.9 59 -57.7 65 -63.9 11.6 -11.9 20.7 -24.4 22.5 -30.7 2.1 -7.6 3.5 -28.2 5.6 -83.7 l0.6 -16 -20.4 20.5 c-11.2 11.3 -28 28.4 -37.4 38 -9.4 9.6 -33.9 34.2 -54.5 54.5 -33.1 32.7 -51.5 50.4 -90.8 88 -5.8 5.5 -18.9 18.1 -29.1 28 -10.2 9.9 -30.9 29.7 -46 44 -15.1 14.3 -35.1 33.5 -44.5 42.6 -9.3 9.1 -18.4 17.3 -20.2 18.3 -1.8 0.9 -4.8 1.6 -6.7 1.6 -3.2 0 -5 -1.4 -17.8 -13.7 -7.9 -7.6 -17.3 -16.5 -20.8 -19.7 -21.7 -20 -42.2 -39.6 -87.5 -84.1 -28 -27.5 -58.6 -57.5 -68 -66.5 -21.1 -20.4 -49 -48.4 -65.5 -65.5 -52.3 -54.6 -75.9 -79 -78.5 -80.9 l-3 -2.3 0.1 27.9 c0.2 49.4 1.5 60.6 8.4 75.3 5.8 12.3 13.1 21.8 27.9 36 7.5 7.1 33.2 32.3 57.1 56 23.9 23.6 57.5 56.7 74.6 73.5 17.1 16.8 35.5 35.1 41 40.7 20.5 20.9 100.1 99 103.9 102 5.7 4.3 8.1 5.5 16 7.4 9.4 2.3 19.8 2.4 27.3 0.1z m4.1 -152.4 c9.7 -9.5 27.3 -26.5 39.1 -37.8 11.8 -11.2 38.4 -36.9 59 -57.1 20.6 -20.1 43.2 -41.9 50.2 -48.5 29.1 -27.2 56 -53.5 103.8 -100.9 30.8 -30.7 54.4 -53.3 60.5 -58 5.5 -4.3 12.9 -10.4 16.3 -13.6 l6.4 -5.8 0.8 -17.3 c0.9 -22 1 -195.3 0 -211.5 -0.8 -13.4 -2 -16.6 -6.7 -17.7 -6.1 -1.5 -16.6 -9.1 -29.4 -21.2 -7.6 -7.2 -13.3 -13.3 -13.3 -14.2 0.1 -1 1.4 -6.6 2.9 -12.7 3.8 -16 4.3 -30.4 1.6 -46.8 -2.4 -14 -4.3 -20.2 -8.9 -29.2 -7.3 -14.5 -21.7 -31 -35.7 -41 -9.7 -6.9 -25.4 -14 -38 -17.2 -9.8 -2.5 -12.8 -2.8 -27.5 -2.8 -14.1 0 -17.7 0.3 -25 2.3 -10 2.7 -26.2 10.2 -35 16.2 -8.3 5.6 -20.4 17.2 -24.9 23.8 l-3.6 5.3 -73.4 0.2 c-57.3 0.1 -73.6 -0.2 -73.9 -1.1 -0.2 -0.7 -2.4 -3.9 -4.8 -7.1 -18.8 -25 -57 -41.4 -92.9 -39.8 -24.4 1.1 -48.8 11 -67.1 27.2 -9.3 8.2 -19.8 22.2 -25.4 34 -7.6 15.8 -10 27.2 -10.2 47.5 -0.1 12.8 1.7 21.7 5.8 28.7 2.4 4.1 2.4 4.4 0.8 7.4 -0.9 1.7 -5.3 7 -9.8 11.8 -4.6 4.7 -14.3 15.2 -21.7 23.2 -7.4 8.1 -21.5 23.4 -31.4 34 -9.9 10.6 -21.4 23.1 -25.5 27.8 -4.1 4.7 -12.5 13.8 -18.5 20.1 -6.1 6.3 -15.9 16.7 -21.7 23.2 -10.3 11.4 -10.5 11.7 -11.2 17.5 -0.8 7 1.7 50.6 3.9 68.3 4.5 35.9 19.7 64 46.7 86.7 12.5 10.4 20.8 18.9 36.3 36.8 15.7 18.2 55.7 58.9 79.5 80.9 15.5 14.3 25.4 23.8 67.5 64.5 6.1 5.8 31.3 30.5 56 54.7 24.8 24.3 47.7 46.6 51.1 49.5 3.4 3 10.6 10.2 16 16.2 5.8 6.3 10.7 10.7 11.8 10.7 1 0 9.3 -7.3 19.5 -17.2z"/>
  <path d="M560.3 858.1 c-3.2 -2.7 -7.8 -6.9 -10.3 -9.5 l-4.4 -4.6 3.5 0 c2.9 0 4.4 0.9 8.7 5.3 2.9 2.9 5.2 5.9 5.2 6.6 0 1 0.9 1.1 3.8 0.6 2 -0.4 3.7 -0.8 3.7 -0.8 0 -1.5 2.7 -4.3 4.4 -4.5 1.1 -0.2 2.1 -0.8 2.1 -1.5 0 -1.8 5.2 -6.7 7.2 -6.7 1 0 1.8 -0.6 1.8 -1.3 0 -1.9 13.3 -14.7 15.3 -14.7 0.9 0 1.7 -0.6 1.7 -1.3 0 -0.7 2.8 -4.1 6.3 -7.5 4.6 -4.5 7 -6.2 9 -6.2 2.1 0 2.7 -0.5 2.7 -2.2 0 -1.6 5.1 -7.4 16.8 -19.1 15.6 -15.6 17.1 -16.8 20.1 -16.5 3.2 0.3 3 0.5 -15.1 18.4 -32.1 31.7 -69.4 66.1 -75.5 69.7 -0.7 0.4 -3.6 -1.4 -7 -4.2z"/>
  <path d="M502 801 c-36.2 -36.2 -38.3 -38.4 -35.6 -38.8 2.7 -0.3 6 2.7 38.8 35.6 32.9 32.8 35.9 36.1 35.6 38.8 -0.4 2.7 -2.6 0.6 -38.8 -35.6z"/>
  <path d="M662.2 770.3 c0.2 -2.5 5.5 -8.1 27.4 -29.7 23.8 -23.3 27.6 -26.6 30.3 -26.6 2.8 0 3.1 -0.3 3.1 -3.2 0 -2.8 2.1 -5.3 16.2 -19.5 8.9 -9 16.6 -16.3 17.1 -16.3 0.4 0 2 -1.3 3.4 -3 1.3 -1.6 2.8 -3 3.2 -3 0.8 0 22.1 -21.1 22.1 -22 0 -0.8 51.4 -52 52.2 -52 0.4 0 3 -2.5 5.9 -5.5 4.3 -4.5 5.8 -5.5 8.5 -5.5 3.1 0 3.4 -0.3 3.4 -2.8 0 -2.7 3.5 -7.2 5.6 -7.2 0.5 0 1.5 -0.9 2.2 -2 0.7 -1.1 1.8 -2 2.6 -2 0.8 0 1.6 -0.7 2 -1.5 0.3 -0.8 1.2 -1.5 2 -1.5 0.7 0 1.6 -0.7 2 -1.5 0.3 -0.8 1.5 -1.5 2.6 -1.5 1.1 0 2 -0.6 2 -1.4 0 -0.8 0.8 -2.8 1.8 -4.5 1.9 -3.4 5.2 -4.2 5.2 -1.3 0 3.5 -4 8.1 -13.5 15.7 -13.5 10.8 -23.3 20.1 -68 64.6 -64.5 64.3 -132.8 131.3 -136.3 133.8 l-3.3 2.3 0.3 -2.9z"/>
  <path d="M455.5 754.4 c-1.1 -0.8 -9.2 -8.5 -18 -17.2 -8.8 -8.6 -20.5 -19.4 -26 -23.8 -5.5 -4.5 -11.1 -9.4 -12.4 -10.8 l-2.4 -2.6 3.4 0 c2.6 0 4.3 0.8 6.2 2.8 1.5 1.5 2.7 3.3 2.7 4 0 0.7 0.9 1.2 2.1 1.2 1.2 0 2.3 0.8 2.6 2 0.3 1.1 1.2 2 2.1 2 0.8 0 2.4 1 3.6 2.3 1.2 1.3 2.9 2.6 3.9 3 1.1 0.4 1.7 1.7 1.7 3.7 0 2.7 0.3 3 3 3 2.5 0 3 0.4 3 2.5 0 2.1 0.5 2.5 2.8 2.5 2.2 0 5 2.3 13.5 10.8 9 9 10.8 11.3 10.5 13.5 -0.3 2.4 -0.5 2.5 -2.3 1.1z"/>
  <path d="M374.1 678.5 c-6.8 -6.6 -16.7 -16.8 -22 -22.6 -5.3 -5.8 -14.5 -14.8 -20.6 -20 -10.9 -9.3 -10.9 -9.4 -7.6 -9.7 3.7 -0.4 6.1 1.2 6.1 3.9 0 1.4 0.7 1.9 2.5 1.9 1.4 0 3 0.9 3.7 2 0.7 1.1 1.8 2 2.4 2 1.8 0 5.4 4.5 5.4 6.7 0 1.5 0.7 2.3 2.3 2.5 1.5 0.2 9.3 7.4 21.6 20 16.8 17.2 19.2 20.1 18.9 22.5 -0.3 2.7 -0.9 2.2 -12.7 -9.2z"/>
  <path d="M311.4 615.8 c-4.4 -5.3 -8.9 -11.2 -9.9 -13.1 l-1.8 -3.5 7.9 -9.1 c4.3 -5 8.1 -9.1 8.4 -9.1 0.3 0 4.3 3.8 9 8.5 l8.5 8.5 -3.5 0 c-2.8 0 -4.4 -1 -9.2 -5.7 -3.2 -3.2 -5.8 -5.1 -5.8 -4.3 0 2 -5 7 -7.1 7 -1.1 0 -1.8 1.1 -2.2 3.3 -0.2 1.7 -0.1 3.4 0.4 3.5 0.5 0.2 0.9 1 0.9 1.7 0 0.7 0.7 1.5 1.5 1.9 0.8 0.3 1.5 1.4 1.5 2.5 0 1 0.9 2.1 2 2.4 1.4 0.3 2 1.4 2 3.1 0 1.9 0.5 2.6 1.9 2.6 2.7 0 4.3 2.4 3.9 6.2 l-0.3 3.3 -8.1 -9.7z"/>
  <path d="M364.5 620.5 c-7.7 -1.7 -17.5 -5.4 -17.5 -6.6 0 -0.5 -0.7 -0.9 -1.5 -0.9 -0.9 0 -2.6 -1 -3.9 -2.2 -1.3 -1.3 -3.2 -2.8 -4.2 -3.4 -1.1 -0.6 -2 -2.5 -2.2 -4.4 l-0.4 -3.4 3.4 2.7 c11.3 9.1 22.1 14.1 35.1 16.2 2.3 0.4 3.7 1.1 3.7 2 0 1.9 -4.2 1.8 -12.5 0z"/>
  <path d="M405 620.6 c0 -0.9 0.2 -1.6 0.5 -1.6 0.3 0 4.9 -0.9 10.2 -2.1 21.1 -4.6 41.2 -16 58.9 -33.4 7.9 -7.7 10.4 -13 8.7 -18 -0.7 -2.2 -2.4 -3.3 -8.8 -5.9 -4.4 -1.8 -9.4 -4 -11.1 -4.9 -3 -1.6 -3.2 -1.5 -5.6 1.1 -1.3 1.5 -4.1 5.1 -6.2 7.9 -10.2 14.3 -27.7 24.4 -46.6 26.9 -4.6 0.6 -5 0.5 -5 -1.4 0 -1.7 1.1 -2.2 6.8 -3.2 7.6 -1.4 17.9 -5.2 23.4 -8.7 2.1 -1.3 3.9 -2.3 4.1 -2.3 0.8 0 13.7 -13.4 13.7 -14.2 0 -0.5 0.7 -1.1 1.5 -1.4 0.8 -0.4 1.5 -1.2 1.5 -2 0 -0.8 0.7 -1.4 1.5 -1.4 0.8 0 1.5 -0.8 1.5 -1.9 0 -3 2.5 -4.4 7.2 -3.8 4.8 0.5 23.8 8.1 25.1 10 0.4 0.7 0.6 4.8 0.5 9.3 -0.3 7.7 -0.5 8.3 -4.2 12.8 -4.9 6 -16.9 16.3 -26 22.3 -13.2 8.7 -30.9 15.3 -44.8 16.8 -5.9 0.6 -6.8 0.5 -6.8 -0.9z"/>
  <path d="M760.8 601.3 l-22.7 -0.3 -0.5 -5.3 c-1 -9.9 -1.5 -27.7 -1 -30.7 l0.7 -3 8.8 0 c8.3 0 8.9 0.1 8.9 2.1 0 1.9 -0.5 2 -7.2 1.8 l-7.3 -0.2 0.4 14.9 c0.2 8.2 0.6 15.2 1 15.5 0.3 0.4 10.6 0.9 22.9 1.1 l22.2 0.4 0 -13.1 c0 -7.1 0.3 -14 0.6 -15.3 0.5 -1.8 0.2 -2.4 -1.5 -2.9 -3.5 -0.9 -2.5 -3.3 1.4 -3.3 l3.5 0 -0.2 19.3 -0.3 19.2 -3.5 0 c-1.9 0.1 -13.7 -0.1 -26.2 -0.2z"/>
  <path d="M381.5 590.3 c-5.8 -1.3 -15.6 -4.9 -20.2 -7.5 -10.2 -5.7 -26.4 -23.1 -32.3 -34.5 -2.1 -4.2 -2.1 -4.2 -0.2 -8.5 1 -2.4 5.9 -9.2 10.8 -15.2 4.9 -6 12.5 -15.5 16.8 -21 4.3 -5.6 13.2 -15.6 19.7 -22.4 11 -11.3 11.9 -12.6 11.9 -16.1 0 -4.5 -3.1 -9.6 -7.9 -12.8 -3.3 -2.3 -3.8 -2.3 -34 -2.3 -16.8 0 -31.6 -0.3 -32.8 -0.6 -1.3 -0.4 -2.3 -1.3 -2.3 -2.1 0 -1.2 5.1 -1.4 34.8 -1.1 l34.9 0.3 3.6 2.8 c5.2 4 7.7 9.3 7.7 16.6 l0 6 -9.3 9.8 c-5.1 5.4 -10.4 10.9 -11.6 12.3 -7.9 8.5 -39.1 48.1 -39.1 49.6 0 0.5 1.4 3.1 3 5.7 1.7 2.6 3 5.1 3 5.5 0 0.4 0.9 1.3 2 2 1.1 0.7 2 1.6 2 2 0 0.9 13.8 14.9 16.7 17 5.1 3.6 18 9.1 23.7 10.2 5.4 1 6.6 1.6 6.6 3.1 0 1.9 -2.5 2.3 -7.5 1.2z"/>
  <path d="M270.5 573 l-3.9 -4 3.6 0 c2 0 4 0.5 4.3 1 1 1.6 2.2 1.2 5.8 -2 2.4 -2 4.5 -3 6.8 -3 l3.3 0 -3 3.1 c-2.7 3 -11 8.9 -12.4 8.9 -0.3 0 -2.4 -1.8 -4.5 -4z"/>
  <path d="M757.8 566.3 c-1 -0.2 -1.8 -1.1 -1.8 -1.9 0 -1.1 2.4 -1.4 13 -1.4 10.4 0 13 0.3 13 1.4 0 0.7 -1 1.6 -2.2 2 -2.6 0.7 -19.4 0.6 -22 -0.1z"/>
  <path d="M256.6 558.9 c-6.5 -7.2 -12.2 -15.7 -15.6 -23.3 -4.4 -9.6 -9 -25.5 -10 -34.7 -1.5 -12.5 -1.4 -13.9 1 -13.9 1.7 0 2 0.7 2 4.4 0 12.7 7.8 37.9 15.4 49.8 2.6 4 5.2 8.2 5.9 9.2 0.6 1.1 2.5 3.1 4 4.5 2.3 2.1 2.8 3.3 2.5 6.1 l-0.3 3.4 -4.9 -5.5z"/>
  <path d="M292.5 556.8 c0.6 -6.2 0.5 -6.8 -1.2 -6.8 -2.9 0 -8.3 -6.1 -8.3 -9.3 0 -2.3 -0.4 -2.7 -2.9 -2.7 -2.2 0 -3.7 -0.9 -5.5 -3.3 -1.5 -1.9 -2.6 -3.9 -2.6 -4.4 0 -0.6 -0.7 -1.3 -1.5 -1.7 -0.8 -0.3 -1.5 -1.2 -1.5 -2.1 0 -0.8 -0.4 -1.5 -1 -1.5 -0.5 0 -1 -0.7 -1 -1.5 0 -0.8 -0.4 -1.5 -1 -1.5 -0.5 0 -1 -0.7 -1 -1.5 0 -0.8 -0.4 -1.5 -1 -1.5 -0.5 0 -1 -0.6 -1 -1.4 0 -0.8 -0.7 -1.6 -1.5 -2 -0.8 -0.3 -1.5 -1.1 -1.5 -1.8 0 -0.7 -0.9 -1.9 -2 -2.6 -1.1 -0.7 -2 -1.7 -2 -2.3 0 -0.6 -1.3 -2.2 -3 -3.6 -1.6 -1.3 -3 -2.9 -3 -3.5 0 -0.6 -1.1 -1.9 -2.5 -3 -1.4 -1.1 -2.5 -2.3 -2.5 -2.7 0 -0.5 -1.8 -2.8 -4 -5.2 -2.2 -2.4 -4 -5.1 -4 -6 0 -0.8 -1.6 -2.1 -3.5 -2.9 -3 -1.2 -3.5 -1.8 -3.5 -4.7 0 -2 0.5 -3.3 1.3 -3.3 2.5 0.1 27.6 30.2 40.6 48.9 3.5 5.1 10.9 13.7 16.3 19.3 11.2 11.4 11.9 13.4 6.7 18.4 l-3.1 2.9 0.7 -6.7z"/>
  <path d="M882 537.4 l0 -2.6 -36.2 0.3 -36.3 0.4 -4.2 -2.4 c-6.6 -3.8 -9.7 -9 -10.1 -17.1 -0.4 -6 -0.1 -7.5 2.3 -11.8 1.5 -2.8 3.9 -6.2 5.4 -7.5 l2.6 -2.5 39.8 0.7 39.7 0.6 0 -5.7 c0 -5.1 0.2 -5.8 2 -5.8 1.6 0 2 0.7 2 3.3 0 6.9 -2.2 40.3 -2.7 41.7 -0.4 0.8 -0.5 2.1 -0.4 2.9 0.2 0.8 0 2.9 -0.4 4.8 -0.7 4 -3.5 4.6 -3.5 0.7z"/>
  <path d="M692 535.3 c-3.5 -0.3 -5.4 -1.3 -8.4 -4.1 -5.3 -5.1 -6.6 -8.7 -6.6 -18.1 0 -7.2 0.3 -8.3 3.3 -12.7 l3.2 -4.9 25 -0.3 c13.8 -0.1 26 0 27.2 0.3 3.7 0.9 5.8 8.4 5.7 20 0 7.9 -0.5 11 -2.2 14.8 l-2.1 4.7 -12.3 0 c-6.8 0 -15.9 0.2 -20.3 0.4 -4.4 0.2 -10 0.2 -12.5 -0.1z"/>
  <path d="M426.6 530 c-0.9 -2.2 -1.6 -5.8 -1.6 -8 0 -6.2 2.4 -5 4.4 2.1 1.2 4.4 2.2 6.2 3.6 6.6 3.4 0.9 2.4 3.3 -1.4 3.3 -3 0 -3.6 -0.4 -5 -4z"/>
  <path d="M463 532.6 c0 -1.9 3.2 -2.6 13.3 -2.6 8 0 8.7 0.2 8.7 2 0 1.9 -0.7 2 -11 2 -8.7 0 -11 -0.3 -11 -1.4z"/>
  <path d="M505 531.6 c0 -2.1 3.3 -2.6 18.8 -2.6 13.5 0 14.2 0.1 14.2 2 0 1.9 -0.7 2 -16.5 2 -13.4 0 -16.5 -0.3 -16.5 -1.4z"/>
  <path d="M542 531.1 c0 -1.8 0.6 -2.1 4 -2.1 4.6 0 6 -1.8 6 -7.7 0 -5.4 1 -8.3 2.7 -8.3 1.3 0 1.5 1.4 1.1 8.5 -0.2 4.7 -1 9.1 -1.6 9.7 -0.6 0.6 -3.6 1.3 -6.7 1.6 -5.1 0.4 -5.5 0.3 -5.5 -1.7z"/>
  <path d="M297.7 516.7 c-2.1 -4.1 -7.4 -11.5 -11.7 -16.5 -6.6 -7.6 -16 -20.2 -16 -21.4 0 -0.2 16.8 -0.3 37.4 -0.3 l37.4 0 -1.9 2.6 c-2.5 3.5 -39.9 42.9 -40.8 42.9 -0.3 0 -2.3 -3.3 -4.4 -7.3z"/>
  <path d="M425 510.3 c0 -2.1 0.9 -5.3 2 -7 1.8 -3 2.4 -3.3 7 -3.3 6.1 0 7.1 2.5 1.4 3.6 -3.7 0.7 -5.8 3 -6.9 7.7 -1.1 4.2 -3.5 3.4 -3.5 -1z"/>
  <path d="M553 505.4 c0 -0.9 -0.9 -1.8 -2 -2.1 -3.5 -0.9 -2.4 -3.3 1.5 -3.3 3.3 0 3.5 0.2 3.5 3.5 0 2.4 -0.5 3.5 -1.5 3.5 -0.8 0 -1.5 -0.7 -1.5 -1.6z"/>
  <path d="M454 501 c0 -1.8 0.7 -2 7.5 -2 5.7 0 7.5 0.3 7.5 1.4 0 1.7 -3.1 2.6 -9.7 2.6 -4.6 0 -5.3 -0.3 -5.3 -2z"/>
  <path d="M481.8 502.3 c-1 -0.2 -1.8 -1.1 -1.8 -1.9 0 -1.1 2.3 -1.4 12.5 -1.4 11.8 0 12.5 0.1 12.5 2 0 1.9 -0.6 2 -10.7 1.9 -6 -0.1 -11.6 -0.3 -12.5 -0.6z"/>
  <path d="M559 477.6 c-5.2 -0.8 -12.3 -2.3 -15.7 -3.5 -7.5 -2.5 -19.3 -8.8 -20 -10.7 -0.3 -0.8 -1 -1.4 -1.7 -1.4 -1.2 0 -15.6 -14 -15.6 -15.2 0 -0.3 -1.3 -2 -3 -3.8 -7.1 -7.5 -13.5 -26 -14.7 -41.7 -0.5 -7.2 -0.4 -8.3 1 -8.3 1.1 0 1.8 1.1 2.1 3.3 3 20.3 6.4 31 13.1 40.8 7.1 10.4 21.5 23.7 31 28.6 19.1 9.9 44.8 12 65.5 5.2 10.7 -3.4 18.3 -7.7 27.8 -15.4 13 -10.7 20.8 -21.8 26 -37 1.8 -5.3 2.6 -9.2 4.8 -22.2 0.3 -2 1.1 -3.3 1.9 -3.3 2.4 0 1.9 10.1 -1 21.4 -5.6 21.9 -15.9 36.5 -36.1 50.9 -15.1 10.8 -41.4 15.7 -65.4 12.3z"/>
  <path d="M886 469.5 c0 -7.8 0.2 -8.5 2 -8.5 1.8 0 2 0.7 2 6.3 0 7.6 -0.8 10.7 -2.6 10.7 -1.1 0 -1.4 -1.9 -1.4 -8.5z"/>
  <path d="M720.3 460.6 c-5.3 -5.7 -7.3 -10.7 -7.3 -17.9 0 -6.1 1.2 -8.8 6.1 -14.2 l4.2 -4.5 64.2 0 c59.9 0 64.3 0.1 65.7 1.8 2.9 3.3 4.3 9.6 4.3 20.2 0 9.8 -0.2 10.8 -2.8 15.3 l-2.9 4.7 -63.3 0 -63.3 0 -4.9 -5.4z"/>
  <path d="M230 448 c0 -1.7 0.7 -2 5 -2 4.3 0 5 0.3 5 2 0 1.7 -0.7 2 -5 2 -4.3 0 -5 -0.3 -5 -2z"/>
  <path d="M255 448 c0 -1.9 0.7 -2 21.5 -2 17.6 0 21.5 0.2 21.5 1.4 0 2.2 -3.4 2.6 -23.7 2.6 -18.6 0 -19.3 -0.1 -19.3 -2z"/>
  <path d="M564.5 445.1 c-20 -5.8 -36 -19.6 -42.5 -36.6 -3 -7.7 -3.4 -25.8 -0.7 -34.5 2.2 -7.3 9.5 -19.6 15 -25.3 11.1 -11.4 35.4 -18.2 51.4 -14.5 13.9 3.3 31.4 16.8 38 29.4 8.9 16.8 8.2 36.5 -2 54.3 -6.2 10.9 -12.6 17 -23 22.1 -15 7.2 -24.3 8.6 -36.2 5.1z m8.5 -56.6 c5.9 -3 11.9 -11.1 12.7 -17.3 1 -7.2 -5.1 -15.3 -15.9 -21.1 l-4.5 -2.4 -4.7 2.4 c-5.2 2.5 -13.1 10.4 -14.6 14.4 -3.2 8.5 1.7 17.5 13 23.9 5.6 3.2 7.8 3.2 14 0.1z"/>
  <path d="M886 423.3 c0 -13.1 -0.4 -24.3 -0.8 -25 -0.5 -0.9 -13.2 -1.2 -48.7 -1.5 -52.6 -0.3 -50.1 0 -54.6 -6.6 -2 -2.9 -2.5 -5.1 -2.7 -11.7 -0.4 -8.5 0.5 -11.7 4.9 -17.3 l1.7 -2.2 49.2 -0.4 c40.4 -0.3 49.4 -0.6 50.1 -1.7 0.5 -0.8 0.9 -4.4 0.9 -8 0 -5.1 -0.5 -7.2 -2 -9.2 -1.1 -1.4 -2 -3 -2 -3.5 0 -0.6 -1 -1.2 -2.2 -1.4 -1.3 -0.2 -2.7 -1.3 -3.3 -2.5 -0.5 -1.3 -1.7 -2.3 -2.6 -2.3 -0.9 0 -4 -2.5 -6.8 -5.5 -2.9 -3 -5.5 -5.5 -5.8 -5.5 -0.4 0 -1.7 -1 -2.9 -2.1 l-2.3 -2.2 -5.9 5.5 c-3.3 3 -11.8 8.8 -19.3 13.1 -10.9 6.3 -14.3 7.7 -17.7 7.7 -4 0 -4.2 -0.1 -4.2 -3 0 -1.7 -0.5 -3 -1.2 -3 -1.7 0 -8.8 -17.8 -8.8 -21.8 0 -2.1 0.5 -3.2 1.4 -3.2 0.8 0 1.6 -0.4 1.8 -0.8 0.3 -0.8 9.3 -7.2 10.1 -7.2 0.3 0 3.1 -2.5 6.4 -5.5 3.2 -3 6.1 -5.5 6.6 -5.5 0.4 0 0.7 -0.6 0.7 -1.4 0 -0.8 1 -2.3 2.3 -3.3 1.2 -1 2.8 -3 3.6 -4.3 10.3 -17.7 12.2 -23.4 12.8 -38.5 0.6 -14.7 -1.1 -23 -7.9 -36.5 -2.8 -5.8 -5.8 -10.9 -6.5 -11.3 -0.7 -0.4 -1.3 -1.2 -1.3 -1.6 0 -1 -12.1 -13.1 -13.2 -13.1 -0.4 0 -1.3 -0.9 -2 -2 -0.7 -1.1 -1.5 -2 -1.9 -2 -0.3 0 -4.1 -2 -8.4 -4.5 -4.4 -2.4 -11.5 -5.7 -15.9 -7.2 -7.4 -2.6 -9.3 -2.8 -22.1 -2.7 -12.4 0 -14.7 0.3 -20.6 2.5 -20.7 7.9 -36.8 22.9 -47.7 44.4 -4.6 9.2 -6.2 16 -6.9 28.6 l-0.6 11.7 -3.6 0.6 c-7 1.1 -9.1 0.8 -9.1 -1.5 0 -1.9 0.4 -2.1 4.3 -1.5 l4.4 0.7 0.6 -11.3 c0.8 -13.4 2.4 -20.3 7.3 -30 9.8 -19.7 22.3 -32.8 38.8 -40.9 13.1 -6.4 23 -8.4 37.6 -7.6 13.4 0.7 20.1 2.5 32.5 8.7 23.3 11.7 39.4 31.6 44.6 55.2 2.8 12.5 2.2 29.5 -1.3 41.4 -5.6 18.8 -20.9 36.9 -41.3 48.9 -1.7 1 -1.5 1.9 2.4 12 2.4 6.1 4.8 11.5 5.4 12.2 0.9 1 4.6 -0.8 16.2 -7.6 14.2 -8.4 21.6 -14.5 25.1 -20.7 1 -1.7 2.2 -0.9 13.5 9.6 6.8 6.4 14.3 13.1 16.7 14.9 5.4 4.4 6.6 8.3 5.8 19.2 -0.4 4.6 -0.7 9.5 -0.8 10.9 -0.1 1.4 0.2 20.8 0.7 43.3 l0.8 40.7 -2.2 0 c-2.1 0 -2.1 -0.1 -2.1 -23.7z"/>
  <path d="M230 438.1 c0 -1 1.7 -3.9 3.8 -6.3 15.2 -18.2 36.6 -42.1 50.7 -56.8 5 -5.2 11.6 -12.2 14.6 -15.5 18.2 -19.9 47.3 -51 59.4 -63.5 13.1 -13.6 45.8 -48.5 57.1 -61.1 2.8 -3.1 9.8 -10.2 15.7 -15.8 10.3 -9.8 10.8 -10.1 15.2 -10.1 3.8 0 4.5 0.3 4.5 2 0 1.6 -0.7 2 -3.3 2 -2.8 0 -5 1.8 -18.2 15 -8.2 8.3 -15.5 15 -16.2 15 -0.7 0 -1.3 0.8 -1.3 1.8 0 2.3 -9 11.2 -11.3 11.2 -1.1 0 -1.7 0.8 -1.7 2.4 0 1.5 -1.8 4.1 -5.4 7.4 -3 2.8 -5.6 5.6 -5.8 6.1 -0.1 0.5 -12 13.2 -26.4 28.3 -14.3 15 -34.3 36.3 -44.4 47.3 -10.1 11 -22.7 24.5 -28.1 30 -10.3 10.6 -25.7 27.6 -40.2 44.3 -4.8 5.6 -9.2 10.2 -9.7 10.2 -0.6 0 -1 0.6 -1 1.3 -0.1 1.8 -4.7 6.7 -6.5 6.7 -0.8 0 -1.5 -0.9 -1.5 -1.9z"/>
  <path d="M706.2 393.4 c-3.8 -4.6 -4.5 -7.8 -4.1 -18.7 0.3 -6.9 0.8 -9 2.9 -12 l2.5 -3.7 18.2 0 18.1 0 0.6 4.8 c1.5 13 1.7 17.7 1.1 23.1 -0.4 3.3 -1.2 6.6 -1.8 7.4 -0.9 1.2 -5 1.7 -17.8 2.2 l-16.6 0.7 -3.1 -3.8z"/>
  <path d="M488.4 379.8 c0.7 -9.1 2.2 -14.8 6.3 -24.1 3.3 -7.5 10.1 -18.7 11.4 -18.7 0.5 0 0.9 -0.6 0.9 -1.3 0 -1.8 7.3 -8.7 9.2 -8.7 0.9 0 1.8 -0.9 2.1 -2 0.3 -1.1 1.2 -2 2.1 -2 0.9 0 1.6 -0.4 1.6 -1 0 -0.5 0.7 -1 1.5 -1 0.8 0 1.5 -0.4 1.5 -0.8 0 -1.3 14.4 -8.9 21.1 -11.2 15.6 -5.1 37.9 -6.2 52.9 -2.5 7 1.8 25 10.1 25 11.6 0 0.5 0.7 0.9 1.5 0.9 0.8 0 2.3 0.8 3.3 1.8 1 0.9 2.7 2.2 3.8 2.8 1.1 0.6 2 2.4 2.2 4.3 0.3 2.7 0.7 3.1 3.2 3.1 8.2 0 25 33.2 25 49.2 0 6.1 -2.6 6.8 -3.5 1.1 -3.2 -20.7 -16.3 -43.9 -30.7 -54.8 -8.4 -6.3 -19 -11.9 -28.8 -15.2 -7.7 -2.5 -9.8 -2.8 -22.5 -2.8 -16.2 0.1 -25.8 2.1 -37.8 8.2 -20.4 10.2 -31 20.6 -40.3 39.3 -3.7 7.5 -7.4 19.7 -7.4 24.5 0 4.6 -1.1 7.5 -2.8 7.5 -1.3 0 -1.4 -1.2 -0.8 -8.2z"/>
  <path d="M754 290.5 c-9.2 -2.1 -19.4 -7.4 -19.8 -10.2 -0.2 -1.4 -1 -2.3 -2.1 -2.3 -1.7 0 -5.1 -2.9 -5.1 -4.3 0 -0.4 -0.9 -1.6 -2 -2.7 -1.1 -1.1 -2 -2.7 -2 -3.5 0 -0.8 -0.4 -1.5 -0.9 -1.5 -1.2 0 -3.7 -7.7 -5 -15.4 -1.4 -7.5 -1.4 -15.8 -0.1 -22.6 1.1 -5.9 6.7 -17.9 8.7 -18.7 0.7 -0.3 1.3 -1.1 1.3 -1.7 0 -1.5 4.2 -5.6 5.7 -5.6 0.6 0 1.3 -0.7 1.7 -1.5 0.3 -0.8 1.2 -1.5 2.1 -1.5 0.8 0 1.5 -0.4 1.5 -0.9 0 -0.4 2.8 -2.1 6.2 -3.6 7.6 -3.4 19.8 -4.8 19.8 -2.2 0 1.1 -1.2 1.8 -3.7 2.2 -8.5 1.4 -10 1.9 -15.7 4.7 -12.6 6.3 -22.5 20.3 -24.4 34.3 -1.5 11.5 1.6 24.9 7.8 34 9.6 13.9 22.6 20.4 40.7 20.5 8.9 0 14.9 -2.1 23.5 -8.3 11.2 -8 17.6 -16.9 20.3 -27.8 1.2 -4.8 2.2 -6.9 3.2 -6.9 1.3 0 1.5 1 1 5.9 -1.3 14.8 -13.7 30.2 -30.5 37.9 -7.1 3.2 -22 4 -32.2 1.7z"/>
  <path d="M756.3 257.5 c-4.7 -2.9 -10.3 -12.6 -10.3 -17.9 0.1 -7.5 6.9 -15.9 15.1 -18.6 11 -3.7 25.4 7.3 25.4 19.4 0 14.1 -18.1 24.3 -30.2 17.1z"/>
  <path d="M650.4 242.8 c0.3 -5.1 1.5 -13.5 2.6 -18.7 1.1 -5.2 2 -10 2 -10.8 0 -0.9 -1.7 -1.3 -6.5 -1.3 -4.9 0 -6.5 -0.3 -6.5 -1.4 0 -1.8 3.1 -2.6 10 -2.6 8.2 0 8.6 0.5 6.7 8.6 -1.7 7.2 -4.1 19.8 -5.2 27.2 -0.6 4 -0.6 4.2 1.9 4.2 1.9 0 2.6 0.5 2.6 2 0 1.7 -0.7 2 -4.1 2 l-4.2 0 0.7 -9.2z"/>
  <path d="M659 249.6 c0 -1.7 3.1 -2.6 9.3 -2.6 4 0 4.7 0.3 4.7 2 0 1.8 -0.7 2 -7 2 -5.3 0 -7 -0.3 -7 -1.4z"/>
  <path d="M360.4 243.3 c-2.5 -17.1 5.1 -42.9 16.5 -55.3 l5 -5.5 0.1 3.7 c0 2.7 -0.6 4.1 -2.5 5.6 -1.4 1.1 -2.5 2.2 -2.5 2.5 0 0.3 -1.3 2.7 -3 5.4 -5.5 9 -10 24.9 -10 35.7 l0 4 3.3 -3.2 c1.8 -1.8 3.8 -3.2 4.5 -3.2 0.7 0 1.2 -0.8 1.2 -1.8 0 -2.2 24 -26.2 26.3 -26.2 1.1 0 1.7 -0.8 1.7 -2.3 0 -2.5 2.8 -5.7 4.8 -5.7 0.7 0 1.2 -0.8 1.2 -1.8 0 -2.2 4 -6.2 6.2 -6.2 1.1 0 1.8 -1 2 -2.7 0.2 -1.7 1.2 -3.2 2.6 -3.8 1.2 -0.5 2.2 -1.8 2.2 -2.7 0 -1.4 0.8 -1.8 3.5 -1.8 1.9 0 3.5 0.5 3.5 1 0 0.6 -0.7 1 -1.5 1 -0.8 0 -1.5 0.4 -1.5 0.8 0 2.4 -60 67.2 -62.2 67.2 -0.4 0 -1 -2.1 -1.4 -4.7z"/>
  <path d="M812.2 228.7 c-4.7 -16.2 -20.5 -30.6 -36.7 -33.6 -3.2 -0.6 -6 -1.1 -6.2 -1.1 -0.2 0 -0.3 -0.7 -0.3 -1.6 0 -1.4 0.9 -1.6 6.7 -1.1 3.7 0.3 6.9 1 7.1 1.6 0.2 0.6 1.2 1.1 2.2 1.1 2.4 0 7 2.1 7 3.2 0 0.4 0.7 0.8 1.5 0.8 0.8 0 1.5 0.5 1.5 1 0 0.6 0.7 1 1.5 1 0.9 0 1.8 0.7 2.1 1.5 0.4 0.8 1.2 1.5 1.8 1.5 1.5 0 5.6 4.2 5.6 5.7 0 0.6 0.7 1.3 1.5 1.7 0.8 0.3 1.5 1.2 1.5 2.1 0 0.8 0.5 1.5 1.1 1.5 1.7 0 6 10.6 6.6 16.5 0.5 4.4 0.3 5.5 -0.9 5.5 -0.9 0 -2.2 -2.6 -3.6 -7.3z"/>
  <path d="M537 211 c0 -2 0.7 -2 42.5 -2 41.8 0 42.5 0 42.5 2 0 2 -0.7 2 -42.5 2 -41.8 0 -42.5 0 -42.5 -2z"/>
  <path d="M456 178 c0 -1.9 0.7 -2 12.3 -2.1 l12.2 -0.1 -8 -3.8 c-4.4 -2.1 -11.5 -4.9 -15.7 -6.2 -6.1 -1.8 -7.8 -2.7 -7.8 -4.2 0 -1.6 0.5 -1.7 3.8 -1.1 11.3 2.1 28.6 9.6 35.2 15.5 l4.5 4 -18.2 0 c-17.6 0 -18.3 -0.1 -18.3 -2z"/>
  <path d="M401 169.1 c0 -0.9 3.9 -3 9.3 -5 2.5 -1 2.7 -0.9 2.7 1.4 0 2 -0.5 2.5 -2.5 2.5 -1.4 0 -2.5 0.5 -2.5 1 0 0.6 -1.6 1 -3.5 1 -1.9 0 -3.5 -0.4 -3.5 -0.9z"/>
  <path d="M416 163.6 c0 -0.9 1.9 -1.8 5 -2.5 6.7 -1.4 7 -1.4 7 0.8 0 1.4 -1 2 -3.7 2.5 -6 0.9 -8.3 0.7 -8.3 -0.8z"/>
  <path d="M432 161.6 c0 -0.8 1.4 -1.7 3.1 -2.1 4.2 -0.9 9.9 0.2 9.9 2 0 1.2 -1.5 1.5 -6.5 1.5 -4.9 0 -6.5 -0.3 -6.5 -1.4z"/>
 </g>
 <g fill="#eef1f1">
  <path d="M550.5 1040.1 c-7.9 -1.9 -10.3 -3.1 -16 -7.4 -3.8 -3 -83.4 -81.1 -103.9 -102 -5.5 -5.6 -23.9 -23.9 -41 -40.7 -17.1 -16.8 -50.7 -49.9 -74.6 -73.5 -23.9 -23.7 -49.6 -48.9 -57.1 -56 -14.8 -14.2 -22.1 -23.7 -27.9 -36 -7.1 -15 -8 -23.6 -8.4 -79.2 l-0.3 -36.3 4.6 4.5 c2.5 2.5 4.9 4.5 5.2 4.5 0.5 0 30.8 31.3 77.9 80.5 16.5 17.1 44.4 45.1 65.5 65.5 9.4 9 40 39 68 66.5 45.8 45 67.6 65.9 87.5 84.1 3.6 3.2 11.9 11.1 18.5 17.4 18.4 17.6 16.7 16.5 20.6 14.4 1.9 -0.9 11.1 -9.2 20.4 -18.3 9.4 -9.1 29.4 -28.3 44.5 -42.6 15.1 -14.3 35.8 -34.1 46 -44 10.2 -9.9 26.8 -25.9 37 -35.5 10.1 -9.6 21.8 -20.9 26 -25.1 4.1 -4.1 10.7 -10.4 14.5 -13.9 17.7 -16.1 156.3 -155.4 157.3 -158.1 0.2 -0.5 1.1 -0.9 1.9 -0.9 1.4 0 1.5 2.4 1 22.3 -1.4 48.6 -3.5 79.8 -5.7 87.9 -1.8 6.3 -10.9 18.8 -22.5 30.7 -6 6.2 -35.3 35 -65 63.9 -100.1 97.5 -116.5 113.4 -125 121.2 -11.9 11 -50.3 48.8 -64.5 63.5 -17.6 18.3 -32.9 32.6 -39.8 37.1 -8.2 5.5 -15.5 7.4 -27.5 7.3 -6.1 0 -13 -0.8 -17.2 -1.8z"/>
  <path d="M556.7 854.3 c-4.5 -4.2 -34.1 -33.4 -65.7 -64.8 -58.1 -57.7 -67.5 -66.7 -76.5 -74 -11.2 -9 -24.8 -22 -50.2 -47.9 -14.7 -15 -30.8 -30.7 -35.8 -34.9 -8.6 -7.1 -21.8 -21.9 -26 -29.2 -2.4 -4.1 -2.1 -4.8 7.2 -15 l6.1 -6.8 11.9 11 c14.3 13.4 16.5 15.2 22.3 18.6 11.3 6.4 28.6 8.9 52.5 7.5 24 -1.4 44.6 -10.2 65.7 -28.2 11.5 -9.8 15.1 -14.6 15.5 -20.9 0.2 -2.9 0 -5.7 -0.4 -6.4 -0.7 -1 -16.8 -8.2 -22.4 -9.9 -1.1 -0.4 -3.2 1.5 -6.7 6.3 -6.1 8.1 -15.2 17.2 -20.7 20.5 -9.8 5.9 -27.5 10.8 -39.2 10.8 -8.6 0 -22 -3.3 -30.4 -7.5 -11 -5.6 -28 -22.9 -34.1 -34.8 -3.4 -6.7 -3.5 -6.5 22.3 -38.4 7.5 -9.2 14.7 -17.9 16 -19.3 1.2 -1.4 6.5 -6.9 11.6 -12.3 7.5 -7.9 9.3 -10.3 9.3 -12.8 0 -4.3 -3.4 -10.3 -7.7 -13.6 l-3.7 -2.8 -70 -0.1 c-38.6 -0.1 -71.8 -0.2 -73.8 -0.3 l-3.8 -0.1 0 -5.9 c0 -6.6 -0.5 -5.8 15.5 -24.1 15.4 -17.7 30.3 -34.1 40.9 -45 5.6 -5.8 20.5 -21.7 33.2 -35.4 12.6 -13.8 29.7 -32 37.9 -40.6 8.3 -8.6 25.6 -27 38.7 -41 13 -14 28.6 -30.4 34.7 -36.5 l11.1 -11 108.5 0 c99.3 0 108.5 0.1 108.5 1.6 0 0.9 -1.1 7 -2.4 13.5 -1.3 6.6 -2.7 14.8 -3.1 18.3 -0.7 6 -0.6 6.3 1.3 5.7 1.1 -0.4 8.7 -0.8 16.9 -1 l14.8 -0.2 0.7 -11.8 c0.8 -13 2.5 -20 7 -29 10.9 -21.6 26.9 -36.5 47.7 -44.5 6.2 -2.4 7.8 -2.5 24.1 -2.5 17 0 17.7 0.1 25.6 3 13.8 5.1 22.9 11 33.4 21.4 8.4 8.3 10.3 10.8 14.8 20 6.4 12.8 8.3 21.4 8.3 37 -0.1 17.4 -3.9 30.1 -13.4 43.9 -4.9 7.2 -15.6 17.4 -24.2 23.1 -4.4 2.9 -8.1 5.4 -8.3 5.5 -0.1 0.1 0.6 2.2 1.7 4.6 1 2.4 3.3 7.9 5.1 12.2 1.8 4.2 3.7 7.7 4.3 7.7 0.6 0 7.2 -3.5 14.6 -7.7 13.2 -7.5 24.4 -16.5 25.6 -20.4 0.4 -1.1 1 -1.9 1.5 -1.7 0.8 0.3 23.8 20.8 30.2 26.9 l3.8 3.7 0 9.8 c0 5.5 -0.4 10.5 -0.9 11.2 -0.6 1.1 -10.6 1.5 -50.1 1.9 -49.2 0.5 -49.3 0.5 -51 2.6 -5.8 7.4 -6.5 16.4 -2 23 4.4 6.5 2 6.2 54.7 6.5 l48.3 0.3 0.4 2.2 c1.1 5 1.4 62.7 0.4 81.7 -0.5 11.2 -1 20.5 -1.1 20.5 -0.1 0.1 -18 -0.2 -39.7 -0.5 l-39.5 -0.7 -2.6 2.4 c-4.7 4.3 -8.2 12 -7.6 16.5 0.7 5.2 4.8 10.9 9.8 13.8 4.1 2.2 4.4 2.3 36.3 2.1 17.6 -0.1 34 -0.4 36.2 -0.7 2.3 -0.3 4.4 -0.2 4.7 0.3 0.3 0.5 -0.1 6.4 -0.9 13.2 -1.8 15.4 -3.2 18.2 -13.3 25.8 -12.3 9.2 -39.5 34.8 -73.7 69.4 -17.7 17.8 -41.3 41.3 -52.5 52.2 -11.2 11 -31.2 30.5 -44.5 43.5 -78.5 77.2 -130.6 126.2 -134.2 126.2 -0.7 0 -4.9 -3.5 -9.5 -7.7z m231.3 -272.2 l0 -15.8 -23.7 -0.6 c-13.1 -0.3 -24 -0.3 -24.2 -0.1 -0.7 0.6 -0.2 23 0.5 28.1 l0.6 4.3 22.7 0.2 c12.4 0.2 22.9 0.2 23.4 0 0.4 -0.2 0.7 -7.4 0.7 -16.1z m-67.7 -50.1 l13.8 0 2.1 -4.6 c4.1 -9.5 2 -27.6 -3.5 -28.9 -1.2 -0.3 -12.1 -0.4 -24.2 -0.3 l-22 0.3 -3.2 4.9 c-5.6 8.2 -4.3 17.5 3.3 24.8 4.1 3.8 8.5 5 16.4 4.2 1.9 -0.2 9.7 -0.4 17.3 -0.4z m-181.9 -2.5 c6.8 -0.2 12.4 -0.9 13 -1.5 0.6 -0.6 1.2 -6.1 1.5 -12.9 l0.3 -11.8 -40.6 -0.7 c-22.3 -0.4 -49.7 -0.4 -60.7 0 l-20.1 0.7 -1.9 3.1 c-2.5 4 -2.6 14.9 -0.2 20.7 l1.6 4.2 47.6 -0.7 c26.2 -0.4 53 -0.9 59.5 -1.1z m56.3 -56.1 c14.3 -2.9 24.5 -8.4 38.1 -20.2 17.5 -15.3 27.2 -37.9 27.2 -63.2 0 -7 -0.6 -13.8 -1.5 -17.3 -7.4 -28.5 -29 -52 -56.3 -61.2 -24.4 -8.2 -51.8 -3.9 -75.2 11.8 -12.6 8.5 -20.6 17.6 -27.4 31.3 -6.1 12.4 -7.7 18.7 -8.3 32.4 -0.8 19.1 3.2 35.7 11.8 49.1 5.9 9.2 21.9 24.7 30.2 29.2 17.7 9.7 39.7 12.6 61.4 8.1z m257 -15.2 c2.4 -4.1 2.8 -5.7 2.7 -12.2 0 -7.9 -1.6 -14.3 -4.2 -17.3 -1.4 -1.6 -5.6 -1.7 -62.8 -1.7 l-61.3 0 -4.5 5 c-2.4 2.8 -4.8 6.4 -5.1 8.1 -1.2 5.2 1.3 11.6 6.8 17.5 l4.9 5.4 60.4 0 60.3 -0.1 2.8 -4.7z m-111.3 -66.2 c1.8 -1.7 2.5 -10.4 1.6 -19.3 -0.5 -5.1 -1 -9.5 -1 -9.9 0 -0.5 -6.9 -0.8 -15.2 -0.8 l-15.3 0 -2.4 3.6 c-2.6 3.8 -3.8 11.7 -2.7 17.6 0.3 1.9 2 5 3.7 7.1 l3.1 3.7 13.6 -0.6 c7.6 -0.4 14.1 -1 14.6 -1.4z m43 -106.3 c12 -5.5 22.2 -15.4 27.5 -26.7 2.4 -5 2.6 -6.6 2.6 -18 0 -10.8 -0.3 -13.2 -2.2 -17.3 -3.7 -8.1 -10.8 -16.2 -18.6 -21.4 -10.3 -6.9 -16.4 -8.6 -29.1 -8.1 -9.5 0.3 -10.9 0.6 -18 4.2 -14 6.9 -23.6 19.6 -25.9 34.5 -1.3 8.6 0.9 21.8 5 29.8 4.2 8.5 13.1 17.5 20.3 20.7 13.5 6.1 28.2 7 38.4 2.3z"/>
  <path d="M556 391.4 c-10.1 -5.7 -14.1 -12 -14.1 -21.6 0 -7 1.9 -11.2 7.4 -16.5 5.5 -5.4 11.2 -8.3 16.2 -8.3 4.9 0 15.2 6.4 19.9 12.3 2.9 3.6 3.1 4.4 3.1 12.1 0 7.9 -0.2 8.5 -3.7 13.9 -6.9 10.3 -18.9 13.7 -28.8 8.1z"/>
  <path d="M264 566.1 c-16.1 -16.3 -24.4 -30.8 -30.1 -53 -3.6 -14.1 -4.8 -38.1 -1.9 -38.1 1.8 0 28.3 32 38 46 4 5.8 12 15.3 17.7 21.2 6.3 6.5 10.3 11.5 10.3 12.7 0 3.7 -18.8 21.1 -22.7 21.1 -0.8 0 -5.8 -4.5 -11.3 -9.9z"/>
  <path d="M361.6 246.4 c-1 -2.5 -0.7 -17.4 0.5 -24.4 3.9 -24.6 19.6 -44.7 43.3 -55.5 10.3 -4.7 19.5 -6.5 33.7 -6.5 11.2 0 13 0.3 22.4 3.4 5.7 1.9 13 4.8 16.3 6.5 5.8 2.9 12.2 7.6 12.2 8.9 0 0.4 -14.7 0.8 -32.7 1 l-32.8 0.3 -3 3.7 c-8.3 10.1 -20.1 23.1 -32.4 35.7 -7.5 7.7 -16.6 17.2 -20.3 21.2 -4.8 5.2 -6.8 6.8 -7.2 5.7z"/>
 </g>
</svg>